STARTFONT 2.1
FONT -thai-dbthaitext-medium-r-normal--14-100-100-100-p-41-tis620-0
SIZE 10 100 100
FONTBOUNDINGBOX 18 16 -5 -6
STARTPROPERTIES 25
FOUNDRY "thai"
FAMILY_NAME "dbthaitext"
WEIGHT_NAME "medium"
SLANT "r"
SETWIDTH_NAME "normal"
ADD_STYLE_NAME ""
PIXEL_SIZE 14
POINT_SIZE 100
RESOLUTION_X 100
RESOLUTION_Y 100
SPACING "p"
AVERAGE_WIDTH 41
CHARSET_REGISTRY "tis620"
CHARSET_ENCODING "0"
FONT "-thai-dbthaitext-medium-r-normal--14-100-100-100-p-41-tis620-0"
COPYRIGHT "Typeface (c) The Monotype Corporation plc. Data (c) The Monotype Corporation plc/Type Solutions Inc. 1990-1992. All Rights Reserved"
RAW_PIXELSIZE 1000
RAW_POINTSIZE 723
RAW_ASCENT 736
RAW_DESCENT 415
RAW_AVERAGE_WIDTH 2994
FACE_NAME "DBThaiTexthickne5"
DEFAULT_CHAR 0
FONT_ASCENT 10
FONT_DESCENT 6
ENDPROPERTIES
CHARS 190
STARTCHAR space
ENCODING 32
SWIDTH 216 0
DWIDTH 3 0
BBX 0 0 0 0
BITMAP
ENDCHAR
STARTCHAR exclam
ENCODING 33
SWIDTH 144 0
DWIDTH 2 0
BBX 1 6 1 0
BITMAP
80
80
80
80
80
80
ENDCHAR
STARTCHAR quotedbl
ENCODING 34
SWIDTH 216 0
DWIDTH 3 0
BBX 3 2 0 4
BITMAP
a0
a0
ENDCHAR
STARTCHAR numbersign
ENCODING 35
SWIDTH 360 0
DWIDTH 5 0
BBX 4 6 0 0
BITMAP
50
50
f0
50
f0
60
ENDCHAR
STARTCHAR dollar
ENCODING 36
SWIDTH 360 0
DWIDTH 5 0
BBX 4 7 0 -1
BITMAP
60
b0
60
30
b0
70
20
ENDCHAR
STARTCHAR percent
ENCODING 37
SWIDTH 504 0
DWIDTH 7 0
BBX 7 6 0 0
BITMAP
e8
a8
f0
1e
2a
2e
ENDCHAR
STARTCHAR ampersand
ENCODING 38
SWIDTH 432 0
DWIDTH 6 0
BBX 5 6 0 0
BITMAP
30
50
60
68
90
78
ENDCHAR
STARTCHAR apostrophe
ENCODING 39
SWIDTH 144 0
DWIDTH 2 0
BBX 1 2 0 4
BITMAP
80
80
ENDCHAR
STARTCHAR parenleft
ENCODING 40
SWIDTH 216 0
DWIDTH 3 0
BBX 2 8 0 -2
BITMAP
40
40
80
80
80
80
40
40
ENDCHAR
STARTCHAR parenright
ENCODING 41
SWIDTH 216 0
DWIDTH 3 0
BBX 2 8 0 -2
BITMAP
40
40
40
40
40
40
40
80
ENDCHAR
STARTCHAR asterisk
ENCODING 42
SWIDTH 216 0
DWIDTH 3 0
BBX 4 2 0 4
BITMAP
f0
60
ENDCHAR
STARTCHAR plus
ENCODING 43
SWIDTH 360 0
DWIDTH 5 0
BBX 4 4 0 0
BITMAP
20
20
f0
20
ENDCHAR
STARTCHAR comma
ENCODING 44
SWIDTH 144 0
DWIDTH 2 0
BBX 1 2 1 -1
BITMAP
80
80
ENDCHAR
STARTCHAR minus
ENCODING 45
SWIDTH 216 0
DWIDTH 3 0
BBX 2 1 0 2
BITMAP
c0
ENDCHAR
STARTCHAR period
ENCODING 46
SWIDTH 144 0
DWIDTH 2 0
BBX 1 1 1 0
BITMAP
80
ENDCHAR
STARTCHAR slash
ENCODING 47
SWIDTH 144 0
DWIDTH 2 0
BBX 2 6 0 0
BITMAP
40
40
40
40
80
80
ENDCHAR
STARTCHAR 0
ENCODING 48
SWIDTH 288 0
DWIDTH 4 0
BBX 4 5 0 0
BITMAP
40
b0
90
90
e0
ENDCHAR
STARTCHAR 1
ENCODING 49
SWIDTH 288 0
DWIDTH 4 0
BBX 2 5 1 0
BITMAP
40
40
40
40
40
ENDCHAR
STARTCHAR 2
ENCODING 50
SWIDTH 288 0
DWIDTH 4 0
BBX 3 5 0 0
BITMAP
60
a0
60
40
e0
ENDCHAR
STARTCHAR 3
ENCODING 51
SWIDTH 288 0
DWIDTH 4 0
BBX 4 5 0 0
BITMAP
60
90
20
10
70
ENDCHAR
STARTCHAR 4
ENCODING 52
SWIDTH 288 0
DWIDTH 4 0
BBX 4 5 0 0
BITMAP
20
60
60
f0
20
ENDCHAR
STARTCHAR 5
ENCODING 53
SWIDTH 288 0
DWIDTH 4 0
BBX 3 5 0 0
BITMAP
e0
c0
a0
20
e0
ENDCHAR
STARTCHAR 6
ENCODING 54
SWIDTH 288 0
DWIDTH 4 0
BBX 3 5 0 0
BITMAP
e0
80
e0
a0
e0
ENDCHAR
STARTCHAR 7
ENCODING 55
SWIDTH 288 0
DWIDTH 4 0
BBX 3 5 0 0
BITMAP
e0
20
40
40
40
ENDCHAR
STARTCHAR 8
ENCODING 56
SWIDTH 288 0
DWIDTH 4 0
BBX 3 5 0 0
BITMAP
60
a0
40
a0
e0
ENDCHAR
STARTCHAR 9
ENCODING 57
SWIDTH 288 0
DWIDTH 4 0
BBX 3 5 0 0
BITMAP
c0
a0
e0
20
e0
ENDCHAR
STARTCHAR colon
ENCODING 58
SWIDTH 144 0
DWIDTH 2 0
BBX 1 1 1 0
BITMAP
80
ENDCHAR
STARTCHAR semicolon
ENCODING 59
SWIDTH 144 0
DWIDTH 2 0
BBX 2 2 1 -1
BITMAP
80
40
ENDCHAR
STARTCHAR less
ENCODING 60
SWIDTH 360 0
DWIDTH 5 0
BBX 4 4 0 0
BITMAP
30
40
e0
10
ENDCHAR
STARTCHAR equal
ENCODING 61
SWIDTH 360 0
DWIDTH 5 0
BBX 4 2 0 1
BITMAP
f0
f0
ENDCHAR
STARTCHAR greater
ENCODING 62
SWIDTH 360 0
DWIDTH 5 0
BBX 4 4 0 0
BITMAP
c0
20
70
80
ENDCHAR
STARTCHAR question
ENCODING 63
SWIDTH 360 0
DWIDTH 5 0
BBX 3 6 1 0
BITMAP
e0
a0
20
40
00
40
ENDCHAR
STARTCHAR at
ENCODING 64
SWIDTH 576 0
DWIDTH 8 0
BBX 8 7 0 -1
BITMAP
3c
43
9d
a5
af
54
3c
ENDCHAR
STARTCHAR A
ENCODING 65
SWIDTH 432 0
DWIDTH 6 0
BBX 5 6 0 0
BITMAP
20
50
50
70
88
88
ENDCHAR
STARTCHAR B
ENCODING 66
SWIDTH 432 0
DWIDTH 6 0
BBX 4 6 1 0
BITMAP
e0
90
f0
90
90
f0
ENDCHAR
STARTCHAR C
ENCODING 67
SWIDTH 432 0
DWIDTH 6 0
BBX 6 6 0 0
BITMAP
78
c4
80
80
c4
38
ENDCHAR
STARTCHAR D
ENCODING 68
SWIDTH 432 0
DWIDTH 6 0
BBX 5 6 1 0
BITMAP
f0
98
88
88
98
f0
ENDCHAR
STARTCHAR E
ENCODING 69
SWIDTH 432 0
DWIDTH 6 0
BBX 4 6 1 0
BITMAP
f0
80
f0
80
80
f0
ENDCHAR
STARTCHAR F
ENCODING 70
SWIDTH 360 0
DWIDTH 5 0
BBX 4 6 1 0
BITMAP
f0
80
e0
80
80
80
ENDCHAR
STARTCHAR G
ENCODING 71
SWIDTH 432 0
DWIDTH 6 0
BBX 6 6 0 0
BITMAP
38
c4
80
9c
c4
3c
ENDCHAR
STARTCHAR H
ENCODING 72
SWIDTH 432 0
DWIDTH 6 0
BBX 4 6 1 0
BITMAP
90
90
f0
90
90
90
ENDCHAR
STARTCHAR I
ENCODING 73
SWIDTH 144 0
DWIDTH 2 0
BBX 1 6 1 0
BITMAP
80
80
80
80
80
80
ENDCHAR
STARTCHAR J
ENCODING 74
SWIDTH 288 0
DWIDTH 4 0
BBX 4 6 0 0
BITMAP
10
10
10
10
90
f0
ENDCHAR
STARTCHAR K
ENCODING 75
SWIDTH 432 0
DWIDTH 6 0
BBX 4 6 1 0
BITMAP
90
a0
c0
a0
90
90
ENDCHAR
STARTCHAR L
ENCODING 76
SWIDTH 360 0
DWIDTH 5 0
BBX 3 6 1 0
BITMAP
80
80
80
80
80
e0
ENDCHAR
STARTCHAR M
ENCODING 77
SWIDTH 504 0
DWIDTH 7 0
BBX 5 6 1 0
BITMAP
88
d8
d8
d8
d8
a8
ENDCHAR
STARTCHAR N
ENCODING 78
SWIDTH 432 0
DWIDTH 6 0
BBX 4 6 1 0
BITMAP
90
d0
d0
b0
b0
90
ENDCHAR
STARTCHAR O
ENCODING 79
SWIDTH 432 0
DWIDTH 6 0
BBX 6 6 0 0
BITMAP
38
c4
84
84
c4
38
ENDCHAR
STARTCHAR P
ENCODING 80
SWIDTH 432 0
DWIDTH 6 0
BBX 4 6 1 0
BITMAP
f0
90
90
f0
80
80
ENDCHAR
STARTCHAR Q
ENCODING 81
SWIDTH 432 0
DWIDTH 6 0
BBX 6 6 0 0
BITMAP
38
c4
84
84
cc
38
ENDCHAR
STARTCHAR R
ENCODING 82
SWIDTH 432 0
DWIDTH 6 0
BBX 5 6 1 0
BITMAP
f0
90
90
f0
90
98
ENDCHAR
STARTCHAR S
ENCODING 83
SWIDTH 432 0
DWIDTH 6 0
BBX 5 6 0 0
BITMAP
70
48
60
18
88
70
ENDCHAR
STARTCHAR T
ENCODING 84
SWIDTH 360 0
DWIDTH 5 0
BBX 5 6 0 0
BITMAP
f8
20
20
20
20
20
ENDCHAR
STARTCHAR U
ENCODING 85
SWIDTH 432 0
DWIDTH 6 0
BBX 4 6 1 0
BITMAP
90
90
90
90
90
70
ENDCHAR
STARTCHAR V
ENCODING 86
SWIDTH 432 0
DWIDTH 6 0
BBX 5 6 0 0
BITMAP
88
48
50
50
50
20
ENDCHAR
STARTCHAR W
ENCODING 87
SWIDTH 576 0
DWIDTH 8 0
BBX 8 6 0 0
BITMAP
99
d9
59
66
66
66
ENDCHAR
STARTCHAR X
ENCODING 88
SWIDTH 432 0
DWIDTH 6 0
BBX 5 6 0 0
BITMAP
88
50
20
20
50
88
ENDCHAR
STARTCHAR Y
ENCODING 89
SWIDTH 432 0
DWIDTH 6 0
BBX 5 6 0 0
BITMAP
88
58
50
20
20
20
ENDCHAR
STARTCHAR Z
ENCODING 90
SWIDTH 360 0
DWIDTH 5 0
BBX 5 6 0 0
BITMAP
f8
10
20
40
40
f8
ENDCHAR
STARTCHAR bracketleft
ENCODING 91
SWIDTH 144 0
DWIDTH 2 0
BBX 2 8 0 -2
BITMAP
c0
80
80
80
80
80
80
c0
ENDCHAR
STARTCHAR backslash
ENCODING 92
SWIDTH 144 0
DWIDTH 2 0
BBX 2 6 0 0
BITMAP
80
80
80
40
40
40
ENDCHAR
STARTCHAR bracketright
ENCODING 93
SWIDTH 144 0
DWIDTH 2 0
BBX 2 8 0 -2
BITMAP
c0
40
40
40
40
40
40
c0
ENDCHAR
STARTCHAR asciicircum
ENCODING 94
SWIDTH 288 0
DWIDTH 4 0
BBX 3 3 0 3
BITMAP
40
a0
a0
ENDCHAR
STARTCHAR underscore
ENCODING 95
SWIDTH 360 0
DWIDTH 5 0
BBX 5 1 0 -2
BITMAP
f8
ENDCHAR
STARTCHAR grave
ENCODING 96
SWIDTH 144 0
DWIDTH 2 0
BBX 2 3 0 1
BITMAP
40
c0
c0
ENDCHAR
STARTCHAR a
ENCODING 97
SWIDTH 360 0
DWIDTH 5 0
BBX 4 4 0 0
BITMAP
70
30
d0
70
ENDCHAR
STARTCHAR b
ENCODING 98
SWIDTH 360 0
DWIDTH 5 0
BBX 4 6 0 0
BITMAP
80
80
f0
90
90
70
ENDCHAR
STARTCHAR c
ENCODING 99
SWIDTH 288 0
DWIDTH 4 0
BBX 4 4 0 0
BITMAP
f0
80
90
70
ENDCHAR
STARTCHAR d
ENCODING 100
SWIDTH 360 0
DWIDTH 5 0
BBX 4 6 0 0
BITMAP
10
10
70
90
90
70
ENDCHAR
STARTCHAR e
ENCODING 101
SWIDTH 360 0
DWIDTH 5 0
BBX 4 4 0 0
BITMAP
f0
f0
80
f0
ENDCHAR
STARTCHAR f
ENCODING 102
SWIDTH 144 0
DWIDTH 2 0
BBX 2 6 0 0
BITMAP
40
40
c0
40
40
40
ENDCHAR
STARTCHAR g
ENCODING 103
SWIDTH 360 0
DWIDTH 5 0
BBX 4 6 0 -2
BITMAP
70
90
90
70
90
60
ENDCHAR
STARTCHAR h
ENCODING 104
SWIDTH 360 0
DWIDTH 5 0
BBX 4 6 0 0
BITMAP
80
80
f0
90
90
90
ENDCHAR
STARTCHAR i
ENCODING 105
SWIDTH 144 0
DWIDTH 2 0
BBX 1 6 0 0
BITMAP
80
00
80
80
80
80
ENDCHAR
STARTCHAR j
ENCODING 106
SWIDTH 144 0
DWIDTH 2 0
BBX 1 8 0 -2
BITMAP
80
00
80
80
80
80
80
80
ENDCHAR
STARTCHAR k
ENCODING 107
SWIDTH 288 0
DWIDTH 4 0
BBX 4 6 0 0
BITMAP
80
80
a0
e0
a0
90
ENDCHAR
STARTCHAR l
ENCODING 108
SWIDTH 144 0
DWIDTH 2 0
BBX 1 6 0 0
BITMAP
80
80
80
80
80
80
ENDCHAR
STARTCHAR m
ENCODING 109
SWIDTH 504 0
DWIDTH 7 0
BBX 6 4 0 0
BITMAP
fc
94
94
94
ENDCHAR
STARTCHAR n
ENCODING 110
SWIDTH 360 0
DWIDTH 5 0
BBX 4 4 0 0
BITMAP
f0
90
90
90
ENDCHAR
STARTCHAR o
ENCODING 111
SWIDTH 360 0
DWIDTH 5 0
BBX 4 4 0 0
BITMAP
70
90
90
60
ENDCHAR
STARTCHAR p
ENCODING 112
SWIDTH 360 0
DWIDTH 5 0
BBX 4 6 0 -2
BITMAP
f0
90
90
f0
80
80
ENDCHAR
STARTCHAR q
ENCODING 113
SWIDTH 360 0
DWIDTH 5 0
BBX 4 6 0 -2
BITMAP
f0
90
90
70
10
10
ENDCHAR
STARTCHAR r
ENCODING 114
SWIDTH 216 0
DWIDTH 3 0
BBX 3 4 0 0
BITMAP
c0
80
80
80
ENDCHAR
STARTCHAR s
ENCODING 115
SWIDTH 288 0
DWIDTH 4 0
BBX 4 4 0 0
BITMAP
e0
e0
10
f0
ENDCHAR
STARTCHAR t
ENCODING 116
SWIDTH 144 0
DWIDTH 2 0
BBX 2 6 0 0
BITMAP
40
40
c0
40
40
40
ENDCHAR
STARTCHAR u
ENCODING 117
SWIDTH 360 0
DWIDTH 5 0
BBX 4 4 0 0
BITMAP
90
90
90
e0
ENDCHAR
STARTCHAR v
ENCODING 118
SWIDTH 288 0
DWIDTH 4 0
BBX 4 4 0 0
BITMAP
90
50
60
60
ENDCHAR
STARTCHAR w
ENCODING 119
SWIDTH 432 0
DWIDTH 6 0
BBX 6 4 0 0
BITMAP
b4
b4
78
48
ENDCHAR
STARTCHAR x
ENCODING 120
SWIDTH 288 0
DWIDTH 4 0
BBX 4 4 0 0
BITMAP
50
60
60
90
ENDCHAR
STARTCHAR y
ENCODING 121
SWIDTH 288 0
DWIDTH 4 0
BBX 4 6 0 -2
BITMAP
90
50
60
60
40
c0
ENDCHAR
STARTCHAR z
ENCODING 122
SWIDTH 288 0
DWIDTH 4 0
BBX 4 4 0 0
BITMAP
70
20
40
f0
ENDCHAR
STARTCHAR braceleft
ENCODING 123
SWIDTH 216 0
DWIDTH 3 0
BBX 2 8 0 -2
BITMAP
40
40
40
c0
40
40
40
40
ENDCHAR
STARTCHAR bar
ENCODING 124
SWIDTH 144 0
DWIDTH 2 0
BBX 1 8 1 -2
BITMAP
80
80
80
80
80
80
80
80
ENDCHAR
STARTCHAR braceright
ENCODING 125
SWIDTH 216 0
DWIDTH 3 0
BBX 2 8 0 -2
BITMAP
c0
40
40
40
40
40
40
c0
ENDCHAR
STARTCHAR asciitilde
ENCODING 126
SWIDTH 360 0
DWIDTH 5 0
BBX 4 2 0 2
BITMAP
40
b0
ENDCHAR
STARTCHAR exclamdown
ENCODING 161
SWIDTH 360 0
DWIDTH 5 0
BBX 5 4 0 0
BITMAP
78
48
48
48
ENDCHAR
STARTCHAR cent
ENCODING 162
SWIDTH 360 0
DWIDTH 5 0
BBX 5 4 0 0
BITMAP
e8
28
28
78
ENDCHAR
STARTCHAR sterling
ENCODING 163
SWIDTH 360 0
DWIDTH 5 0
BBX 5 4 0 0
BITMAP
e8
e8
28
38
ENDCHAR
STARTCHAR currency
ENCODING 164
SWIDTH 360 0
DWIDTH 5 0
BBX 5 5 0 0
BITMAP
70
a8
f8
48
48
ENDCHAR
STARTCHAR yen
ENCODING 165
SWIDTH 360 0
DWIDTH 5 0
BBX 5 4 0 0
BITMAP
f8
f8
48
48
ENDCHAR
STARTCHAR brokenbar
ENCODING 166
SWIDTH 432 0
DWIDTH 6 0
BBX 6 4 0 0
BITMAP
e4
e4
3c
24
ENDCHAR
STARTCHAR section
ENCODING 167
SWIDTH 288 0
DWIDTH 4 0
BBX 4 4 0 0
BITMAP
20
a0
60
70
ENDCHAR
STARTCHAR diaeresis
ENCODING 168
SWIDTH 360 0
DWIDTH 5 0
BBX 4 4 0 0
BITMAP
70
70
10
10
ENDCHAR
STARTCHAR copyright
ENCODING 169
SWIDTH 360 0
DWIDTH 5 0
BBX 6 4 0 0
BITMAP
38
c8
7c
4c
ENDCHAR
STARTCHAR ordfeminine
ENCODING 170
SWIDTH 360 0
DWIDTH 5 0
BBX 5 5 0 0
BITMAP
68
f8
28
28
78
ENDCHAR
STARTCHAR guillemotleft
ENCODING 171
SWIDTH 360 0
DWIDTH 5 0
BBX 5 5 0 0
BITMAP
78
e8
e8
28
38
ENDCHAR
STARTCHAR notsign
ENCODING 172
SWIDTH 504 0
DWIDTH 7 0
BBX 6 4 0 0
BITMAP
74
54
5c
74
ENDCHAR
STARTCHAR hyphen
ENCODING 173
SWIDTH 504 0
DWIDTH 7 0
BBX 6 6 0 -2
BITMAP
74
54
54
5c
14
1c
ENDCHAR
STARTCHAR registered
ENCODING 174
SWIDTH 432 0
DWIDTH 6 0
BBX 5 6 0 -2
BITMAP
78
48
48
c8
78
78
ENDCHAR
STARTCHAR macron
ENCODING 175
SWIDTH 432 0
DWIDTH 6 0
BBX 5 6 0 -2
BITMAP
78
48
48
c8
28
78
ENDCHAR
STARTCHAR degree
ENCODING 176
SWIDTH 288 0
DWIDTH 4 0
BBX 4 7 0 -3
BITMAP
20
50
70
10
50
d0
70
ENDCHAR
STARTCHAR plusminus
ENCODING 177
SWIDTH 504 0
DWIDTH 7 0
BBX 6 4 0 0
BITMAP
fc
f4
24
24
ENDCHAR
STARTCHAR twosuperior
ENCODING 178
SWIDTH 504 0
DWIDTH 7 0
BBX 6 4 0 0
BITMAP
fc
ac
bc
5c
ENDCHAR
STARTCHAR threesuperior
ENCODING 179
SWIDTH 504 0
DWIDTH 7 0
BBX 7 4 0 0
BITMAP
74
54
5e
76
ENDCHAR
STARTCHAR acute
ENCODING 180
SWIDTH 360 0
DWIDTH 5 0
BBX 5 5 0 0
BITMAP
70
a8
a8
a8
48
ENDCHAR
STARTCHAR mu
ENCODING 181
SWIDTH 360 0
DWIDTH 5 0
BBX 5 4 0 0
BITMAP
f8
a8
a8
48
ENDCHAR
STARTCHAR paragraph
ENCODING 182
SWIDTH 360 0
DWIDTH 5 0
BBX 5 4 0 0
BITMAP
78
48
48
68
ENDCHAR
STARTCHAR periodcentered
ENCODING 183
SWIDTH 360 0
DWIDTH 5 0
BBX 5 4 0 0
BITMAP
f8
68
48
48
ENDCHAR
STARTCHAR cedilla
ENCODING 184
SWIDTH 288 0
DWIDTH 4 0
BBX 3 4 1 0
BITMAP
c0
a0
a0
e0
ENDCHAR
STARTCHAR onesuperior
ENCODING 185
SWIDTH 360 0
DWIDTH 5 0
BBX 6 4 0 0
BITMAP
c8
48
7c
4c
ENDCHAR
STARTCHAR masculine
ENCODING 186
SWIDTH 360 0
DWIDTH 5 0
BBX 5 4 0 0
BITMAP
c8
48
48
78
ENDCHAR
STARTCHAR guillemotright
ENCODING 187
SWIDTH 360 0
DWIDTH 5 0
BBX 5 6 0 0
BITMAP
08
48
c8
48
48
78
ENDCHAR
STARTCHAR onequarter
ENCODING 188
SWIDTH 360 0
DWIDTH 5 0
BBX 4 4 1 0
BITMAP
d0
b0
f0
90
ENDCHAR
STARTCHAR onehalf
ENCODING 189
SWIDTH 360 0
DWIDTH 5 0
BBX 4 6 1 0
BITMAP
10
90
d0
b0
f0
90
ENDCHAR
STARTCHAR threequarters
ENCODING 190
SWIDTH 432 0
DWIDTH 6 0
BBX 6 4 0 0
BITMAP
f4
74
4c
44
ENDCHAR
STARTCHAR questiondown
ENCODING 191
SWIDTH 432 0
DWIDTH 6 0
BBX 6 6 0 0
BITMAP
04
54
f4
6c
4c
44
ENDCHAR
STARTCHAR Agrave
ENCODING 192
SWIDTH 432 0
DWIDTH 6 0
BBX 5 4 0 0
BITMAP
78
48
48
c8
ENDCHAR
STARTCHAR Aacute
ENCODING 193
SWIDTH 360 0
DWIDTH 5 0
BBX 5 4 0 0
BITMAP
48
48
78
48
ENDCHAR
STARTCHAR Acircumflex
ENCODING 194
SWIDTH 360 0
DWIDTH 5 0
BBX 4 4 0 0
BITMAP
d0
50
90
f0
ENDCHAR
STARTCHAR Atilde
ENCODING 195
SWIDTH 288 0
DWIDTH 4 0
BBX 4 4 0 0
BITMAP
60
10
30
30
ENDCHAR
STARTCHAR Adiaeresis
ENCODING 196
SWIDTH 360 0
DWIDTH 5 0
BBX 5 6 0 -2
BITMAP
78
48
48
68
08
08
ENDCHAR
STARTCHAR Aring
ENCODING 197
SWIDTH 360 0
DWIDTH 5 0
BBX 4 4 0 0
BITMAP
70
90
d0
f0
ENDCHAR
STARTCHAR AE
ENCODING 198
SWIDTH 432 0
DWIDTH 6 0
BBX 5 6 0 -2
BITMAP
78
48
48
c8
08
08
ENDCHAR
STARTCHAR Ccedilla
ENCODING 199
SWIDTH 360 0
DWIDTH 5 0
BBX 3 4 1 0
BITMAP
60
20
20
60
ENDCHAR
STARTCHAR Egrave
ENCODING 200
SWIDTH 360 0
DWIDTH 5 0
BBX 5 5 0 0
BITMAP
78
b8
f8
48
48
ENDCHAR
STARTCHAR Eacute
ENCODING 201
SWIDTH 432 0
DWIDTH 6 0
BBX 6 4 0 0
BITMAP
c8
7c
48
78
ENDCHAR
STARTCHAR Ecircumflex
ENCODING 202
SWIDTH 360 0
DWIDTH 5 0
BBX 5 5 0 0
BITMAP
10
78
90
d0
f0
ENDCHAR
STARTCHAR Ediaeresis
ENCODING 203
SWIDTH 432 0
DWIDTH 6 0
BBX 5 4 0 0
BITMAP
d8
68
48
48
ENDCHAR
STARTCHAR Igrave
ENCODING 204
SWIDTH 432 0
DWIDTH 6 0
BBX 6 5 0 0
BITMAP
4c
d8
68
68
48
ENDCHAR
STARTCHAR Iacute
ENCODING 205
SWIDTH 360 0
DWIDTH 5 0
BBX 3 4 1 0
BITMAP
60
e0
a0
e0
ENDCHAR
STARTCHAR Icircumflex
ENCODING 206
SWIDTH 360 0
DWIDTH 5 0
BBX 5 5 1 0
BITMAP
20
f8
a0
a0
e0
ENDCHAR
STARTCHAR Idiaeresis
ENCODING 207
SWIDTH 360 0
DWIDTH 5 0
BBX 4 4 0 0
BITMAP
50
d0
70
10
ENDCHAR
STARTCHAR ETH
ENCODING 208
SWIDTH 288 0
DWIDTH 4 0
BBX 3 4 0 0
BITMAP
c0
00
a0
e0
ENDCHAR
STARTCHAR Ntilde
ENCODING 209
SWIDTH 0 0
DWIDTH 0 0
BBX 4 2 -3 6
BITMAP
80
f0
ENDCHAR
STARTCHAR Ograve
ENCODING 210
SWIDTH 288 0
DWIDTH 4 0
BBX 3 4 1 0
BITMAP
e0
20
20
20
ENDCHAR
STARTCHAR Oacute
ENCODING 211
SWIDTH 288 0
DWIDTH 4 0
BBX 6 7 -2 0
BITMAP
c0
00
00
1c
04
04
04
ENDCHAR
STARTCHAR Ocircumflex
ENCODING 212
SWIDTH 0 0
DWIDTH 0 0
BBX 4 1 -5 6
BITMAP
f0
ENDCHAR
STARTCHAR Otilde
ENCODING 213
SWIDTH 72 0
DWIDTH 1 0
BBX 4 2 -4 6
BITMAP
10
f0
ENDCHAR
STARTCHAR Odiaeresis
ENCODING 214
SWIDTH 0 0
DWIDTH 0 0
BBX 4 2 -4 6
BITMAP
30
f0
ENDCHAR
STARTCHAR multiply
ENCODING 215
SWIDTH 72 0
DWIDTH 1 0
BBX 4 2 -4 6
BITMAP
30
f0
ENDCHAR
STARTCHAR Ooblique
ENCODING 216
SWIDTH 0 0
DWIDTH 0 0
BBX 1 2 -2 -3
BITMAP
80
80
ENDCHAR
STARTCHAR Ugrave
ENCODING 217
SWIDTH 0 0
DWIDTH 0 0
BBX 3 3 -4 -4
BITMAP
e0
60
20
ENDCHAR
STARTCHAR Uacute
ENCODING 218
SWIDTH 0 0
DWIDTH 0 0
BBX 1 1 -2 -2
BITMAP
80
ENDCHAR
STARTCHAR Ucircumflex
ENCODING 219
SWIDTH 0 0
DWIDTH 0 0
BBX 1 1 -2 -4
BITMAP
80
ENDCHAR
STARTCHAR Udiaeresis
ENCODING 220
SWIDTH 0 0
DWIDTH 0 0
BBX 1 1 0 0
BITMAP
00
ENDCHAR
STARTCHAR Yacute
ENCODING 221
SWIDTH 0 0
DWIDTH 0 0
BBX 1 1 0 0
BITMAP
00
ENDCHAR
STARTCHAR THORN
ENCODING 222
SWIDTH 0 0
DWIDTH 0 0
BBX 1 1 0 0
BITMAP
00
ENDCHAR
STARTCHAR ssharp
ENCODING 223
SWIDTH 0 0
DWIDTH 0 0
BBX 1 1 0 0
BITMAP
00
ENDCHAR
STARTCHAR agrave
ENCODING 224
SWIDTH 216 0
DWIDTH 3 0
BBX 2 4 1 0
BITMAP
80
80
80
c0
ENDCHAR
STARTCHAR aacute
ENCODING 225
SWIDTH 360 0
DWIDTH 5 0
BBX 4 4 1 0
BITMAP
a0
a0
a0
f0
ENDCHAR
STARTCHAR acircumflex
ENCODING 226
SWIDTH 216 0
DWIDTH 3 0
BBX 3 9 0 0
BITMAP
40
c0
40
40
40
40
40
40
60
ENDCHAR
STARTCHAR atilde
ENCODING 227
SWIDTH 216 0
DWIDTH 3 0
BBX 3 9 0 0
BITMAP
80
c0
40
40
40
40
40
40
60
ENDCHAR
STARTCHAR adiaeresis
ENCODING 228
SWIDTH 216 0
DWIDTH 3 0
BBX 4 9 0 0
BITMAP
c0
c0
c0
40
40
40
40
60
70
ENDCHAR
STARTCHAR aring
ENCODING 229
SWIDTH 288 0
DWIDTH 4 0
BBX 3 6 1 -2
BITMAP
e0
20
20
20
20
20
ENDCHAR
STARTCHAR ae
ENCODING 230
SWIDTH 432 0
DWIDTH 6 0
BBX 4 6 1 -2
BITMAP
f0
50
10
10
10
20
ENDCHAR
STARTCHAR ccedilla
ENCODING 231
SWIDTH 0 0
DWIDTH 0 0
BBX 3 3 -4 5
BITMAP
e0
e0
40
ENDCHAR
STARTCHAR egrave
ENCODING 232
SWIDTH 0 0
DWIDTH 0 0
BBX 1 1 -2 9
BITMAP
80
ENDCHAR
STARTCHAR eacute
ENCODING 233
SWIDTH 0 0
DWIDTH 0 0
BBX 3 2 -3 8
BITMAP
a0
40
ENDCHAR
STARTCHAR ecircumflex
ENCODING 234
SWIDTH 0 0
DWIDTH 0 0
BBX 4 2 -3 8
BITMAP
f0
a0
ENDCHAR
STARTCHAR ediaeresis
ENCODING 235
SWIDTH 0 0
DWIDTH 0 0
BBX 2 2 -2 8
BITMAP
c0
80
ENDCHAR
STARTCHAR igrave
ENCODING 236
SWIDTH 0 0
DWIDTH 0 0
BBX 3 2 -2 8
BITMAP
60
c0
ENDCHAR
STARTCHAR iacute
ENCODING 237
SWIDTH 0 0
DWIDTH 0 0
BBX 2 2 -3 5
BITMAP
c0
c0
ENDCHAR
STARTCHAR icircumflex
ENCODING 238
SWIDTH 0 0
DWIDTH 0 0
BBX 2 1 -3 7
BITMAP
c0
ENDCHAR
STARTCHAR idiaeresis
ENCODING 239
SWIDTH 360 0
DWIDTH 5 0
BBX 5 4 0 0
BITMAP
f8
f8
e8
70
ENDCHAR
STARTCHAR eth
ENCODING 240
SWIDTH 360 0
DWIDTH 5 0
BBX 5 4 0 0
BITMAP
70
98
88
70
ENDCHAR
STARTCHAR ntilde
ENCODING 241
SWIDTH 360 0
DWIDTH 5 0
BBX 5 4 0 0
BITMAP
60
98
a8
68
ENDCHAR
STARTCHAR ograve
ENCODING 242
SWIDTH 432 0
DWIDTH 6 0
BBX 6 5 0 0
BITMAP
c0
40
7c
74
7c
ENDCHAR
STARTCHAR oacute
ENCODING 243
SWIDTH 432 0
DWIDTH 6 0
BBX 4 4 1 0
BITMAP
e0
b0
b0
b0
ENDCHAR
STARTCHAR ocircumflex
ENCODING 244
SWIDTH 432 0
DWIDTH 6 0
BBX 6 5 0 0
BITMAP
04
38
d0
b0
78
ENDCHAR
STARTCHAR otilde
ENCODING 245
SWIDTH 432 0
DWIDTH 6 0
BBX 6 5 0 0
BITMAP
24
3c
d0
b0
78
ENDCHAR
STARTCHAR odiaeresis
ENCODING 246
SWIDTH 288 0
DWIDTH 4 0
BBX 4 5 0 0
BITMAP
80
e0
10
50
60
ENDCHAR
STARTCHAR division
ENCODING 247
SWIDTH 432 0
DWIDTH 6 0
BBX 5 5 1 0
BITMAP
08
08
f8
90
90
ENDCHAR
STARTCHAR oslash
ENCODING 248
SWIDTH 432 0
DWIDTH 6 0
BBX 5 5 1 0
BITMAP
08
78
80
b0
f0
ENDCHAR
STARTCHAR ugrave
ENCODING 249
SWIDTH 360 0
DWIDTH 5 0
BBX 5 5 0 0
BITMAP
08
08
f0
b0
68
ENDCHAR
STARTCHAR uacute
ENCODING 250
SWIDTH 1008 0
DWIDTH 14 0
BBX 13 1 0 2
BITMAP
fff8
ENDCHAR
STARTCHAR ucircumflex
ENCODING 251
SWIDTH 504 0
DWIDTH 7 0
BBX 7 1 0 2
BITMAP
fe
ENDCHAR
STARTCHAR udiaeresis
ENCODING 252
SWIDTH 0 0
DWIDTH 0 0
BBX 1 3 -2 -6
BITMAP
80
80
80
ENDCHAR
STARTCHAR yacute
ENCODING 253
SWIDTH 0 0
DWIDTH 0 0
BBX 3 3 -4 -6
BITMAP
e0
60
20
ENDCHAR
STARTCHAR thorn
ENCODING 254
SWIDTH 504 0
DWIDTH 7 0
BBX 6 6 0 0
BITMAP
38
44
bc
b4
ac
78
ENDCHAR
STARTCHAR ydiaeresis
ENCODING 255
SWIDTH 0 0
DWIDTH 0 0
BBX 1 1 0 0
BITMAP
00
ENDCHAR
ENDFONT
